{"accessors":[{"bufferView":2,"componentType":5126,"count":5209,"max":[0.6116359829902649,0.3683069944381714,0.9247350096702576],"min":[-0.19192400574684143,-0.3557479977607727,-0.0003229999856557697],"type":"VEC3"},{"bufferView":2,"byteOffset":62508,"componentType":5126,"count":5209,"max":[0.9998733997344971,0.9999417066574097,0.9993226528167725],"min":[-0.9992810487747192,-0.9988476037979126,-0.9998390078544617],"type":"VEC3"},{"bufferView":3,"componentType":5126,"count":5209,"max":[0.9998688697814941,0.99980229139328,0.9998758435249329,1],"min":[-0.9994603395462036,-0.9995226263999939,-0.9994759559631348,-1],"type":"VEC4"},{"bufferView":1,"componentType":5126,"count":5209,"max":[0.9879649877548218,0.9864270091056824],"min":[0.016919000074267387,0.011641000397503376],"type":"VEC2"},{"bufferView":0,"componentType":5125,"count":26928,"type":"SCALAR"}],"asset":{"extras":{"author":"Kikikokorochan (https://sketchfab.com/PaolaCarrilloPerez)","license":"CC-BY-4.0 (http://creativecommons.org/licenses/by/4.0/)","source":"https://sketchfab.com/3d-models/foxiny-0eebf4815f9a4b7298fbf52050a05807","title":"Foxiny"},"generator":"Sketchfab-13.12.0","version":"2.0"},"bufferViews":[{"buffer":0,"byteLength":107712,"name":"floatBufferViews","target":34963},{"buffer":0,"byteLength":41672,"byteOffset":107712,"byteStride":8,"name":"floatBufferViews","target":34962},{"buffer":0,"byteLength":125016,"byteOffset":149384,"byteStride":12,"name":"floatBufferViews","target":34962},{"buffer":0,"byteLength":83344,"byteOffset":274400,"byteStride":16,"name":"floatBufferViews","target":34962}],"buffers":[{"byteLength":357744,"uri":"data:application/octet-stream;base64,"}],"images":[{"uri":"data:application/octet-stream;base64,"},{"uri":"data:application/octet-stream;base64,"},{"uri":"data:application/octet-stream;base64,"}],"materials":[{"alphaMode":"BLEND","doubleSided":true,"name":"Default_OBJ","normalTexture":{"index":2},"occlusionTexture":{"index":1},"pbrMetallicRoughness":{"baseColorTexture":{"index":0},"metallicFactor":0.1808896768365803,"metallicRoughnessTexture":{"index":1},"roughnessFactor":0.6}}],"meshes":[{"name":"Object_0","primitives":[{"attributes":{"NORMAL":1,"POSITION":0,"TANGENT":2,"TEXCOORD_0":3},"indices":4,"material":0,"mode":4}]}],"nodes":[{"children":[1],"matrix":[1,0,0,0,0,2.220446049250313e-16,-1,0,0,1,2.220446049250313e-16,0,0,0,0,1],"name":"Sketchfab_model"},{"children":[2],"name":"AgiPanSketchfab02.obj.cleaner.materialmerger.gles"},{"mesh":0,"name":"Object_2"}],"samplers":[{"magFilter":9729,"minFilter":9987,"wrapS":10497,"wrapT":10497}],"scene":0,"scenes":[{"name":"Sketchfab_Scene","nodes":[0]}],"textures":[{"sampler":0,"source":0},{"sampler":0,"source":1},{"sampler":0,"source":2}]}