{"accessors":[{"bufferView":1,"componentType":5126,"count":6124,"max":[0.4051583409309387,-0.7623246312141418,-0.11121063679456711],"min":[-0.4051583409309387,-0.9613068103790283,-0.7944981455802917],"type":"VEC3"},{"bufferView":1,"byteOffset":73488,"componentType":5126,"count":6124,"max":[0.9997790455818176,0.9999120831489563,0.9996587634086609],"min":[-0.9997790455818176,-0.9997133016586304,-0.9993952512741089],"type":"VEC3"},{"bufferView":2,"componentType":5126,"count":6124,"max":[0.9411764740943909,0.8901960849761963,0.13725490868091583,1],"min":[0,0,0,1],"type":"VEC4"},{"bufferView":0,"componentType":5125,"count":36168,"type":"SCALAR"},{"bufferView":1,"byteOffset":146976,"componentType":5126,"count":9196,"max":[1.3490461111068726,0.46825239062309265,0.9940686225891113],"min":[-1.3490461111068726,-0.9523332118988037,-1.1019129753112793],"type":"VEC3"},{"bufferView":1,"byteOffset":257328,"componentType":5126,"count":9196,"max":[0.9993188977241516,0.9999319314956665,0.9994946122169495],"min":[-0.9993188977241516,-0.9999863505363464,-0.9983819127082825],"type":"VEC3"},{"bufferView":2,"byteOffset":97984,"componentType":5126,"count":9196,"max":[0.929411768913269,0.03921568766236305,0.03921568766236305,1],"min":[0.929411768913269,0.0235294122248888,0.0235294122248888,1],"type":"VEC4"},{"bufferView":0,"byteOffset":144672,"componentType":5125,"count":55164,"type":"SCALAR"},{"bufferView":1,"byteOffset":367680,"componentType":5126,"count":9518,"max":[0.8063532710075378,0.14889739453792572,-0.8396811485290527],"min":[-0.8063532710075378,-0.9050743579864502,-1.8526355028152466],"type":"VEC3"},{"bufferView":1,"byteOffset":481896,"componentType":5126,"count":9518,"max":[0.9996979236602783,0.9999797344207764,0.9998356103897095],"min":[-0.9996979236602783,-0.9999542236328125,-0.9999527335166931],"type":"VEC3"},{"bufferView":2,"byteOffset":245120,"componentType":5126,"count":9518,"max":[0.9176470637321472,0.9960784316062927,0.886274516582489,1],"min":[0.04313725605607033,0.23137255012989044,0,1],"type":"VEC4"},{"bufferView":0,"byteOffset":365328,"componentType":5125,"count":57096,"type":"SCALAR"}],"asset":{"extras":{"author":"Polifeya (https://sketchfab.com/Polifeya)","license":"CC-BY-4.0 (http://creativecommons.org/licenses/by/4.0/)","source":"https://sketchfab.com/3d-models/tata-7aafefa0b4c04d8491a3245adcf5a8f8","title":"TaTa"},"generator":"Sketchfab-12.66.0","version":"2.0"},"bufferViews":[{"buffer":0,"byteLength":593712,"name":"floatBufferViews","target":34963},{"buffer":0,"byteLength":596112,"byteOffset":593712,"byteStride":12,"name":"floatBufferViews","target":34962},{"buffer":0,"byteLength":397408,"byteOffset":1189824,"byteStride":16,"name":"floatBufferViews","target":34962}],"buffers":[{"byteLength":1587232,"uri":"data:application/octet-stream;base64,"}],"materials":[{"doubleSided":true,"name":"material_0","pbrMetallicRoughness":{"metallicFactor":0,"roughnessFactor":0.6}}],"meshes":[{"name":"Object_0","primitives":[{"attributes":{"COLOR_0":2,"NORMAL":1,"POSITION":0},"indices":3,"material":0,"mode":4}]},{"name":"Object_1","primitives":[{"attributes":{"COLOR_0":6,"NORMAL":5,"POSITION":4},"indices":7,"material":0,"mode":4}]},{"name":"Object_2","primitives":[{"attributes":{"COLOR_0":10,"NORMAL":9,"POSITION":8},"indices":11,"material":0,"mode":4}]}],"nodes":[{"children":[1],"matrix":[1,0,0,0,0,2.220446049250313e-16,-1,0,0,1,2.220446049250313e-16,0,0,0,0,1],"name":"Sketchfab_model"},{"children":[2,3,4],"name":"TaTa.OBJ.cleaner.materialmerger.gles"},{"mesh":0,"name":"Object_2"},{"mesh":1,"name":"Object_3"},{"mesh":2,"name":"Object_4"}],"scene":0,"scenes":[{"name":"Sketchfab_Scene","nodes":[0]}]}